ply
format ascii 1.0
comment VCGLIB generated
element camera 1
property float view_px
property float view_py
property float view_pz
property float x_axisx
property float x_axisy
property float x_axisz
property float y_axisx
property float y_axisy
property float y_axisz
property float z_axisx
property float z_axisy
property float z_axisz
property float focal
property float scalex
property float scaley
property float centerx
property float centery
property int viewportx
property int viewporty
property float k1
property float k2
property float k3
property float k4
element vertex 414
property float x
property float y
property float z
property float nx
property float ny
property float nz
property int flags
property uchar red
property uchar green
property uchar blue
property uchar alpha
element face 824
property list uchar int vertex_indices
property int flags
end_header
-0 -0 -0 1 0 0 0 1 0 0 0 1 0 0 0 0 0 0 0 0 0 0 0
-0.22 -0.44 -0.0727272 -0.344064 -0.932963 -0.105835 0 255 255 255 255 
-0.22 -0.448081 0 -0.324911 -0.945708 0.00831642 0 255 255 255 255 
-0.234545 -0.44 0 -0.571965 -0.81993 -0.023893 0 255 255 255 255 
-0.22 -0.44 0.0727273 -0.550931 -0.82669 0.114276 0 255 255 255 255 
-0.11 -0.44 -0.207576 -0.205024 -0.92657 -0.315331 0 255 255 255 255 
-0.11 -0.472525 -0.11 -0.195351 -0.961566 -0.192946 0 255 255 255 255 
-0.207576 -0.44 -0.11 -0.319381 -0.909355 -0.266587 0 255 255 255 255 
-0.11 -0.484747 0 -0.19607 -0.980348 0.0217856 0 255 255 255 255 
-0.207576 -0.44 0.11 -0.315331 -0.92657 0.205024 0 255 255 255 255 
-0.11 -0.472525 0.11 -0.206934 -0.955607 0.209748 0 255 255 255 255 
-0.11 -0.44 0.207576 -0.266587 -0.909355 0.319382 0 255 255 255 255 
0 -0.44 -0.234545 0.023893 -0.81993 -0.571965 0 255 255 255 255 
0 -0.448081 -0.22 -0.00831642 -0.945708 -0.324911 0 255 255 255 255 
-0.0727272 -0.44 -0.22 -0.114276 -0.82669 -0.550931 0 255 255 255 255 
0 -0.484747 -0.11 0.0217856 -0.980348 -0.19607 0 255 255 255 255 
0 -0.49697 0 3.20703e-009 -1 0 0 255 255 255 255 
0 -0.484747 0.11 -0.0217856 -0.980348 0.19607 0 255 255 255 255 
-0.0727272 -0.44 0.22 -0.105835 -0.932963 0.344064 0 255 255 255 255 
0 -0.448081 0.22 0.00831634 -0.945708 0.324911 0 255 255 255 255 
0 -0.44 0.234545 -0.023893 -0.81993 0.571965 0 255 255 255 255 
0.0727273 -0.44 -0.22 0.105835 -0.932963 -0.344064 0 255 255 255 255 
0.11 -0.44 -0.207576 0.266588 -0.909355 -0.319381 0 255 255 255 255 
0.11 -0.472525 -0.11 0.206934 -0.955607 -0.209748 0 255 255 255 255 
0.11 -0.484747 0 0.19607 -0.980348 -0.0217856 0 255 255 255 255 
0.11 -0.472525 0.11 0.195351 -0.961566 0.192946 0 255 255 255 255 
0.11 -0.44 0.207576 0.205024 -0.92657 0.315331 0 255 255 255 255 
0.0727273 -0.44 0.22 0.114277 -0.826689 0.550932 0 255 255 255 255 
0.207576 -0.44 -0.11 0.315331 -0.92657 -0.205024 0 255 255 255 255 
0.22 -0.44 -0.0727272 0.550932 -0.826689 -0.114277 0 255 255 255 255 
0.22 -0.448081 0 0.324911 -0.945708 -0.00831633 0 255 255 255 255 
0.22 -0.44 0.0727273 0.344064 -0.932963 0.105835 0 255 255 255 255 
0.207576 -0.44 0.11 0.319382 -0.909355 0.266588 0 255 255 255 255 
0.234545 -0.44 0 0.571965 -0.81993 0.023893 0 255 255 255 255 
-0.33 -0.33 -0.170909 -0.602518 -0.725125 -0.333414 0 255 255 255 255 
-0.33 -0.356104 -0.11 -0.599239 -0.76917 -0.222014 0 255 255 255 255 
-0.356104 -0.33 -0.11 -0.776191 -0.579588 -0.248203 0 255 255 255 255 
-0.33 -0.371818 0 -0.612035 -0.790802 0.00667039 0 255 255 255 255 
-0.371818 -0.33 0 -0.790802 -0.612035 -0.00667039 0 255 255 255 255 
-0.33 -0.356104 0.11 -0.579588 -0.776191 0.248203 0 255 255 255 255 
-0.356104 -0.33 0.11 -0.76917 -0.599239 0.222014 0 255 255 255 255 
-0.33 -0.33 0.170909 -0.725125 -0.602518 0.333414 0 255 255 255 255 
-0.22 -0.33 -0.300545 -0.491953 -0.662753 -0.564571 0 255 255 255 255 
-0.22 -0.387533 -0.22 -0.441531 -0.784703 -0.435075 0 255 255 255 255 
-0.300545 -0.33 -0.22 -0.562918 -0.646316 -0.515168 0 255 255 255 255 
-0.22 -0.434675 -0.11 -0.519547 -0.82032 -0.239052 0 255 255 255 255 
-0.22 -0.434675 0.11 -0.505347 -0.822105 0.262235 0 255 255 255 255 
-0.300545 -0.33 0.22 -0.564571 -0.662753 0.491953 0 255 255 255 255 
-0.22 -0.387533 0.22 -0.435075 -0.784703 0.441532 0 255 255 255 255 
-0.22 -0.33 0.300545 -0.465753 -0.694109 0.548896 0 255 255 255 255 
-0.11 -0.33 -0.356104 -0.222014 -0.599239 -0.76917 0 255 255 255 255 
-0.11 -0.356104 -0.33 -0.248203 -0.776191 -0.579588 0 255 255 255 255 
-0.170909 -0.33 -0.33 -0.333414 -0.602518 -0.725125 0 255 255 255 255 
-0.11 -0.434675 -0.22 -0.262235 -0.822106 -0.505346 0 255 255 255 255 
-0.11 -0.434675 0.22 -0.239052 -0.82032 0.519547 0 255 255 255 255 
-0.170909 -0.33 0.33 -0.333414 -0.725125 0.602518 0 255 255 255 255 
-0.11 -0.356104 0.33 -0.222014 -0.76917 0.599239 0 255 255 255 255 
-0.11 -0.33 0.356104 -0.248203 -0.579588 0.776191 0 255 255 255 255 
0 -0.33 -0.371818 0.00667039 -0.612035 -0.790802 0 255 255 255 255 
0 -0.371818 -0.33 -0.00667038 -0.790802 -0.612035 0 255 255 255 255 
0 -0.371818 0.33 0.00667039 -0.790802 0.612035 0 255 255 255 255 
0 -0.33 0.371818 -0.0066704 -0.612035 0.790802 0 255 255 255 255 
0.11 -0.33 -0.356104 0.248203 -0.579588 -0.776191 0 255 255 255 255 
0.11 -0.356104 -0.33 0.222014 -0.76917 -0.599239 0 255 255 255 255 
0.11 -0.434675 -0.22 0.239052 -0.82032 -0.519547 0 255 255 255 255 
0.11 -0.434675 0.22 0.262235 -0.822105 0.505347 0 255 255 255 255 
0.11 -0.356104 0.33 0.248203 -0.776191 0.579588 0 255 255 255 255 
0.11 -0.33 0.356104 0.222014 -0.599239 0.76917 0 255 255 255 255 
0.170909 -0.33 -0.33 0.333414 -0.725125 -0.602518 0 255 255 255 255 
0.22 -0.33 -0.300545 0.465753 -0.694109 -0.548896 0 255 255 255 255 
0.22 -0.387533 -0.22 0.435076 -0.784703 -0.441531 0 255 255 255 255 
0.22 -0.434675 -0.11 0.505347 -0.822105 -0.262235 0 255 255 255 255 
0.22 -0.434675 0.11 0.519547 -0.82032 0.239052 0 255 255 255 255 
0.22 -0.387533 0.22 0.441532 -0.784703 0.435075 0 255 255 255 255 
0.22 -0.33 0.300545 0.451875 -0.697408 0.556266 0 255 255 255 255 
0.170909 -0.33 0.33 0.333415 -0.602518 0.725125 0 255 255 255 255 
0.300545 -0.33 -0.22 0.556266 -0.697408 -0.451874 0 255 255 255 255 
0.33 -0.33 -0.170909 0.725125 -0.602518 -0.333414 0 255 255 255 255 
0.33 -0.356104 -0.11 0.579588 -0.776191 -0.248203 0 255 255 255 255 
0.33 -0.371818 0 0.612035 -0.790802 -0.0066704 0 255 255 255 255 
0.33 -0.356104 0.11 0.599239 -0.76917 0.222014 0 255 255 255 255 
0.33 -0.33 0.170909 0.602518 -0.725125 0.333414 0 255 255 255 255 
0.300545 -0.33 0.22 0.548896 -0.694109 0.465753 0 255 255 255 255 
0.356104 -0.33 -0.11 0.76917 -0.599239 -0.222014 0 255 255 255 255 
0.371818 -0.33 0 0.790802 -0.612035 0.0066704 0 255 255 255 255 
0.356104 -0.33 0.11 0.776191 -0.579588 0.248204 0 255 255 255 255 
-0.44 -0.22 -0.0727272 -0.82669 -0.550931 -0.114276 0 255 255 255 255 
-0.44 -0.234545 0 -0.81993 -0.571965 0.023893 0 255 255 255 255 
-0.448081 -0.22 0 -0.945708 -0.324911 -0.00831641 0 255 255 255 255 
-0.44 -0.22 0.0727273 -0.932963 -0.344064 0.105835 0 255 255 255 255 
-0.33 -0.22 -0.300545 -0.637294 -0.523872 -0.565168 0 255 255 255 255 
-0.33 -0.300545 -0.22 -0.718046 -0.550264 -0.426169 0 255 255 255 255 
-0.387533 -0.22 -0.22 -0.784703 -0.435075 -0.441531 0 255 255 255 255 
-0.434675 -0.22 -0.11 -0.822106 -0.505346 -0.262235 0 255 255 255 255 
-0.434675 -0.22 0.11 -0.82032 -0.519547 0.239052 0 255 255 255 255 
-0.33 -0.300545 0.22 -0.67058 -0.556263 0.49081 0 255 255 255 255 
-0.387533 -0.22 0.22 -0.784703 -0.441531 0.435076 0 255 255 255 255 
-0.33 -0.22 0.300545 -0.718046 -0.426169 0.550264 0 255 255 255 255 
-0.22 -0.22 -0.387533 -0.435075 -0.441531 -0.784703 0 255 255 255 255 
-0.22 -0.300545 -0.33 -0.465753 -0.548896 -0.694109 0 255 255 255 255 
-0.300545 -0.22 -0.33 -0.556266 -0.451874 -0.697408 0 255 255 255 255 
-0.300545 -0.22 0.33 -0.565168 -0.523872 0.637294 0 255 255 255 255 
-0.22 -0.300545 0.33 -0.480622 -0.562359 0.67287 0 255 255 255 255 
-0.22 -0.22 0.387532 -0.441531 -0.435075 0.784703 0 255 255 255 255 
-0.11 -0.22 -0.434675 -0.239052 -0.519547 -0.82032 0 255 255 255 255 
-0.11 -0.22 0.434675 -0.262235 -0.505346 0.822106 0 255 255 255 255 
0 -0.22 -0.448081 0.00831642 -0.324911 -0.945708 0 255 255 255 255 
0 -0.234545 -0.44 -0.023893 -0.571965 -0.81993 0 255 255 255 255 
-0.0727272 -0.22 -0.44 -0.105835 -0.344064 -0.932963 0 255 255 255 255 
-0.0727272 -0.22 0.44 -0.114276 -0.550932 0.826689 0 255 255 255 255 
0 -0.234545 0.44 0.023893 -0.571965 0.81993 0 255 255 255 255 
0 -0.22 0.448081 -0.00831644 -0.324912 0.945708 0 255 255 255 255 
0.0727273 -0.22 -0.44 0.114276 -0.550931 -0.82669 0 255 255 255 255 
0.11 -0.22 -0.434675 0.262235 -0.505347 -0.822105 0 255 255 255 255 
0.11 -0.22 0.434675 0.239052 -0.519547 0.82032 0 255 255 255 255 
0.0727273 -0.22 0.44 0.105837 -0.344066 0.932962 0 255 255 255 255 
0.22 -0.300545 -0.33 0.491953 -0.564571 -0.662753 0 255 255 255 255 
0.22 -0.22 -0.387533 0.441532 -0.435075 -0.784703 0 255 255 255 255 
0.22 -0.300545 0.33 0.523872 -0.565168 0.637294 0 255 255 255 255 
0.22 -0.22 0.387532 0.435076 -0.441531 0.784703 0 255 255 255 255 
0.300545 -0.22 -0.33 0.562918 -0.515168 -0.646316 0 255 255 255 255 
0.33 -0.22 -0.300545 0.718046 -0.426169 -0.550264 0 255 255 255 255 
0.33 -0.300545 -0.22 0.637294 -0.565168 -0.523872 0 255 255 255 255 
0.33 -0.300545 0.22 0.662753 -0.564571 0.491953 0 255 255 255 255 
0.33 -0.22 0.300545 0.646317 -0.515168 0.562918 0 255 255 255 255 
0.300545 -0.22 0.33 0.550264 -0.426169 0.718046 0 255 255 255 255 
0.387532 -0.22 -0.22 0.784703 -0.441531 -0.435075 0 255 255 255 255 
0.434675 -0.22 -0.11 0.82032 -0.519547 -0.239052 0 255 255 255 255 
0.44 -0.234545 0 0.81993 -0.571965 -0.023893 0 255 255 255 255 
0.44 -0.22 -0.0727272 0.932962 -0.344066 -0.105837 0 255 255 255 255 
0.44 -0.22 0.0727273 0.826689 -0.550932 0.114276 0 255 255 255 255 
0.434675 -0.22 0.11 0.822105 -0.505346 0.262236 0 255 255 255 255 
0.387532 -0.22 0.22 0.784703 -0.435075 0.441532 0 255 255 255 255 
0.448081 -0.22 0 0.945708 -0.324912 0.00831644 0 255 255 255 255 
-0.44 -0.11 -0.207576 -0.909355 -0.266587 -0.319381 0 255 255 255 255 
-0.44 -0.207576 -0.11 -0.92657 -0.315331 -0.205024 0 255 255 255 255 
-0.472525 -0.11 -0.11 -0.955607 -0.206934 -0.209748 0 255 255 255 255 
-0.484747 -0.11 0 -0.980348 -0.19607 -0.0217856 0 255 255 255 255 
-0.44 -0.207576 0.11 -0.909355 -0.319381 0.266588 0 255 255 255 255 
-0.472525 -0.11 0.11 -0.961566 -0.195351 0.192946 0 255 255 255 255 
-0.44 -0.11 0.207576 -0.92657 -0.205024 0.315331 0 255 255 255 255 
-0.33 -0.11 -0.356104 -0.579588 -0.248203 -0.776191 0 255 255 255 255 
-0.33 -0.170909 -0.33 -0.725125 -0.333414 -0.602518 0 255 255 255 255 
-0.356104 -0.11 -0.33 -0.76917 -0.222014 -0.599239 0 255 255 255 255 
-0.434675 -0.11 -0.22 -0.82032 -0.239052 -0.519547 0 255 255 255 255 
-0.434675 -0.11 0.22 -0.822105 -0.262235 0.505347 0 255 255 255 255 
-0.33 -0.170909 0.33 -0.602518 -0.333414 0.725125 0 255 255 255 255 
-0.356104 -0.11 0.33 -0.776191 -0.248203 0.579588 0 255 255 255 255 
-0.33 -0.11 0.356104 -0.599239 -0.222014 0.76917 0 255 255 255 255 
-0.22 -0.11 -0.434675 -0.505346 -0.262235 -0.822106 0 255 255 255 255 
-0.22 -0.11 0.434675 -0.519547 -0.239052 0.82032 0 255 255 255 255 
-0.11 -0.11 -0.472525 -0.192946 -0.195351 -0.961566 0 255 255 255 255 
-0.11 -0.207576 -0.44 -0.266587 -0.319381 -0.909355 0 255 255 255 255 
-0.207576 -0.11 -0.44 -0.315331 -0.205024 -0.92657 0 255 255 255 255 
-0.207576 -0.11 0.44 -0.319382 -0.266588 0.909355 0 255 255 255 255 
-0.11 -0.207576 0.44 -0.205025 -0.315332 0.926569 0 255 255 255 255 
-0.11 -0.11 0.472525 -0.195351 -0.192947 0.961566 0 255 255 255 255 
0 -0.11 -0.484747 0.0217856 -0.19607 -0.980348 0 255 255 255 255 
0 -0.11 0.484748 0.0217854 -0.196069 0.980348 0 255 255 255 255 
0.11 -0.207576 -0.44 0.205024 -0.315331 -0.92657 0 255 255 255 255 
0.11 -0.11 -0.472525 0.209748 -0.206934 -0.955607 0 255 255 255 255 
0.11 -0.207576 0.44 0.266588 -0.319382 0.909355 0 255 255 255 255 
0.11 -0.11 0.472525 0.206935 -0.209749 0.955606 0 255 255 255 255 
0.207576 -0.11 -0.44 0.319382 -0.266587 -0.909355 0 255 255 255 255 
0.22 -0.11 -0.434675 0.519547 -0.239052 -0.82032 0 255 255 255 255 
0.22 -0.11 0.434675 0.505347 -0.262235 0.822105 0 255 255 255 255 
0.207576 -0.11 0.44 0.315333 -0.205025 0.926569 0 255 255 255 255 
0.33 -0.170909 -0.33 0.602518 -0.333414 -0.725125 0 255 255 255 255 
0.33 -0.11 -0.356104 0.599239 -0.222014 -0.76917 0 255 255 255 255 
0.33 -0.170909 0.33 0.725125 -0.333414 0.602518 0 255 255 255 255 
0.33 -0.11 0.356104 0.579588 -0.248204 0.776191 0 255 255 255 255 
0.356104 -0.11 -0.33 0.776191 -0.248203 -0.579588 0 255 255 255 255 
0.434675 -0.11 -0.22 0.822106 -0.262235 -0.505346 0 255 255 255 255 
0.44 -0.207576 -0.11 0.909355 -0.319382 -0.266588 0 255 255 255 255 
0.44 -0.11 -0.207576 0.926569 -0.205025 -0.315332 0 255 255 255 255 
0.44 -0.207576 0.11 0.926569 -0.315332 0.205025 0 255 255 255 255 
0.44 -0.11 0.207576 0.909355 -0.266588 0.319382 0 255 255 255 255 
0.434675 -0.11 0.22 0.82032 -0.239052 0.519547 0 255 255 255 255 
0.356104 -0.11 0.33 0.76917 -0.222014 0.599239 0 255 255 255 255 
0.472525 -0.11 -0.11 0.955606 -0.209749 -0.206935 0 255 255 255 255 
0.484748 -0.11 0 0.980348 -0.196069 -0.0217854 0 255 255 255 255 
0.472525 -0.11 0.11 0.961566 -0.192947 0.195351 0 255 255 255 255 
-0.44 0 -0.234545 -0.81993 -0.023893 -0.571965 0 255 255 255 255 
-0.44 -0.0727272 -0.22 -0.932963 -0.105835 -0.344064 0 255 255 255 255 
-0.448081 0 -0.22 -0.945708 0.00831641 -0.324911 0 255 255 255 255 
-0.484747 0 -0.11 -0.980348 -0.0217856 -0.19607 0 255 255 255 255 
-0.49697 0 0 -1 3.20703e-009 0 0 255 255 255 255 
-0.484747 0 0.11 -0.980348 0.0217856 0.19607 0 255 255 255 255 
-0.44 -0.0727272 0.22 -0.826689 -0.114277 0.550931 0 255 255 255 255 
-0.448081 0 0.22 -0.945708 -0.00831633 0.324911 0 255 255 255 255 
-0.44 0 0.234545 -0.81993 0.023893 0.571965 0 255 255 255 255 
-0.33 0 -0.371818 -0.612035 -0.00667038 -0.790802 0 255 255 255 255 
-0.371818 0 -0.33 -0.790802 0.00667039 -0.612035 0 255 255 255 255 
-0.371818 0 0.33 -0.790802 -0.00667039 0.612035 0 255 255 255 255 
-0.33 0 0.371818 -0.612035 0.0066704 0.790802 0 255 255 255 255 
-0.22 0 -0.448081 -0.324911 -0.00831642 -0.945708 0 255 255 255 255 
-0.22 -0.0727272 -0.44 -0.550931 -0.114276 -0.82669 0 255 255 255 255 
-0.234545 0 -0.44 -0.571965 0.023893 -0.81993 0 255 255 255 255 
-0.234545 0 0.44 -0.571965 -0.023893 0.81993 0 255 255 255 255 
-0.22 -0.0727272 0.44 -0.344066 -0.105837 0.932962 0 255 255 255 255 
-0.22 0 0.448081 -0.324912 0.00831644 0.945708 0 255 255 255 255 
-0.11 0 -0.484747 -0.19607 0.0217856 -0.980348 0 255 255 255 255 
-0.11 0 0.484748 -0.196069 0.0217854 0.980348 0 255 255 255 255 
0 0 -0.49697 0 3.20703e-009 -1 0 255 255 255 255 
0 0 0.49697 0 3.20703e-009 1 0 255 255 255 255 
0.11 0 -0.484747 0.19607 -0.0217856 -0.980348 0 255 255 255 255 
0.11 0 0.484748 0.196069 -0.0217854 0.980348 0 255 255 255 255 
0.22 -0.0727272 -0.44 0.344064 -0.105835 -0.932963 0 255 255 255 255 
0.22 0 -0.448081 0.324911 0.00831634 -0.945708 0 255 255 255 255 
0.22 -0.0727272 0.44 0.550932 -0.114277 0.826689 0 255 255 255 255 
0.22 0 0.448081 0.324913 -0.00831636 0.945707 0 255 255 255 255 
0.234545 0 -0.44 0.571965 -0.023893 -0.81993 0 255 255 255 255 
0.33 0 -0.371818 0.612035 0.00667039 -0.790802 0 255 255 255 255 
0.33 0 0.371818 0.612035 -0.0066704 0.790802 0 255 255 255 255 
0.234545 0 0.44 0.571965 0.023893 0.81993 0 255 255 255 255 
0.371818 0 -0.33 0.790802 -0.0066704 -0.612035 0 255 255 255 255 
0.44 -0.0727272 -0.22 0.826689 -0.114276 -0.550932 0 255 255 255 255 
0.44 0 -0.234545 0.81993 0.023893 -0.571965 0 255 255 255 255 
0.44 -0.0727272 0.22 0.932962 -0.105837 0.344066 0 255 255 255 255 
0.44 0 0.234545 0.81993 -0.023893 0.571965 0 255 255 255 255 
0.371818 0 0.33 0.790802 0.00667041 0.612035 0 255 255 255 255 
0.448081 0 -0.22 0.945708 -0.00831644 -0.324912 0 255 255 255 255 
0.484748 0 -0.11 0.980348 -0.0217854 -0.196069 0 255 255 255 255 
0.49697 0 0 1 3.20703e-009 0 0 255 255 255 255 
0.484748 0 0.11 0.980348 0.0217854 0.196069 0 255 255 255 255 
0.448081 0 0.22 0.945708 0.00831637 0.324913 0 255 255 255 255 
-0.44 0.0727273 -0.22 -0.82669 0.114276 -0.550931 0 255 255 255 255 
-0.44 0.11 -0.207576 -0.92657 0.205024 -0.315331 0 255 255 255 255 
-0.472525 0.11 -0.11 -0.961566 0.195351 -0.192946 0 255 255 255 255 
-0.484747 0.11 0 -0.980348 0.19607 0.0217856 0 255 255 255 255 
-0.472525 0.11 0.11 -0.955607 0.206934 0.209748 0 255 255 255 255 
-0.44 0.0727273 0.22 -0.932963 0.105835 0.344064 0 255 255 255 255 
-0.44 0.11 0.207576 -0.909355 0.266588 0.319382 0 255 255 255 255 
-0.33 0.11 -0.356104 -0.599239 0.222014 -0.76917 0 255 255 255 255 
-0.356104 0.11 -0.33 -0.776191 0.248203 -0.579588 0 255 255 255 255 
-0.434675 0.11 -0.22 -0.822105 0.262235 -0.505347 0 255 255 255 255 
-0.434675 0.11 0.22 -0.82032 0.239052 0.519547 0 255 255 255 255 
-0.356104 0.11 0.33 -0.76917 0.222014 0.599239 0 255 255 255 255 
-0.33 0.11 0.356104 -0.579588 0.248204 0.776191 0 255 255 255 255 
-0.22 0.0727273 -0.44 -0.344064 0.105835 -0.932963 0 255 255 255 255 
-0.22 0.11 -0.434675 -0.519547 0.239052 -0.82032 0 255 255 255 255 
-0.22 0.0727273 0.44 -0.550932 0.114276 0.826689 0 255 255 255 255 
-0.22 0.11 0.434675 -0.505346 0.262236 0.822105 0 255 255 255 255 
-0.207576 0.11 -0.44 -0.319381 0.266588 -0.909355 0 255 255 255 255 
-0.11 0.11 -0.472525 -0.209748 0.206934 -0.955607 0 255 255 255 255 
-0.207576 0.11 0.44 -0.315332 0.205025 0.926569 0 255 255 255 255 
-0.11 0.11 0.472525 -0.206935 0.209749 0.955606 0 255 255 255 255 
0 0.11 -0.484747 -0.0217856 0.19607 -0.980348 0 255 255 255 255 
0 0.11 0.484748 -0.0217854 0.196069 0.980348 0 255 255 255 255 
0.11 0.11 -0.472525 0.192946 0.195351 -0.961566 0 255 255 255 255 
0.11 0.11 0.472525 0.195351 0.192947 0.961566 0 255 255 255 255 
0.207576 0.11 -0.44 0.315331 0.205024 -0.92657 0 255 255 255 255 
0.22 0.0727273 -0.44 0.550932 0.114277 -0.826689 0 255 255 255 255 
0.22 0.11 -0.434675 0.505347 0.262235 -0.822105 0 255 255 255 255 
0.22 0.11 0.434675 0.519547 0.239052 0.82032 0 255 255 255 255 
0.207576 0.11 0.44 0.319383 0.266588 0.909354 0 255 255 255 255 
0.22 0.0727273 0.44 0.344066 0.105837 0.932962 0 255 255 255 255 
0.33 0.11 -0.356104 0.579588 0.248203 -0.776191 0 255 255 255 255 
0.33 0.11 0.356104 0.599239 0.222014 0.76917 0 255 255 255 255 
0.356104 0.11 -0.33 0.76917 0.222014 -0.599239 0 255 255 255 255 
0.434675 0.11 -0.22 0.82032 0.239052 -0.519547 0 255 255 255 255 
0.44 0.0727273 -0.22 0.932962 0.105837 -0.344066 0 255 255 255 255 
0.44 0.11 -0.207576 0.909355 0.266588 -0.319382 0 255 255 255 255 
0.44 0.11 0.207576 0.926569 0.205025 0.315332 0 255 255 255 255 
0.434675 0.11 0.22 0.822105 0.262236 0.505347 0 255 255 255 255 
0.44 0.0727273 0.22 0.826689 0.114277 0.550932 0 255 255 255 255 
0.356104 0.11 0.33 0.776191 0.248204 0.579588 0 255 255 255 255 
0.472525 0.11 -0.11 0.961566 0.192947 -0.195351 0 255 255 255 255 
0.484748 0.11 0 0.980348 0.196069 0.0217854 0 255 255 255 255 
0.472525 0.11 0.11 0.955606 0.209749 0.206935 0 255 255 255 255 
-0.44 0.207576 -0.11 -0.909355 0.319382 -0.266587 0 255 255 255 255 
-0.44 0.22 -0.0727272 -0.932963 0.344064 -0.105835 0 255 255 255 255 
-0.448081 0.22 0 -0.945708 0.324911 0.00831634 0 255 255 255 255 
-0.44 0.207576 0.11 -0.92657 0.315331 0.205024 0 255 255 255 255 
-0.44 0.22 0.0727273 -0.826689 0.550932 0.114277 0 255 255 255 255 
-0.33 0.170909 -0.33 -0.602518 0.333414 -0.725125 0 255 255 255 255 
-0.33 0.22 -0.300545 -0.67287 0.480622 -0.562359 0 255 255 255 255 
-0.387533 0.22 -0.22 -0.784703 0.441532 -0.435075 0 255 255 255 255 
-0.434675 0.22 -0.11 -0.82032 0.519547 -0.239052 0 255 255 255 255 
-0.434675 0.22 0.11 -0.822105 0.505347 0.262235 0 255 255 255 255 
-0.387533 0.22 0.22 -0.784703 0.435075 0.441531 0 255 255 255 255 
-0.33 0.170909 0.33 -0.725125 0.333414 0.602518 0 255 255 255 255 
-0.33 0.22 0.300545 -0.694109 0.465753 0.548896 0 255 255 255 255 
-0.300545 0.22 -0.33 -0.548896 0.465753 -0.694109 0 255 255 255 255 
-0.22 0.22 -0.387533 -0.441531 0.435076 -0.784703 0 255 255 255 255 
-0.300545 0.22 0.33 -0.562359 0.480622 0.672871 0 255 255 255 255 
-0.22 0.22 0.387532 -0.435075 0.441532 0.784703 0 255 255 255 255 
-0.11 0.207576 -0.44 -0.205024 0.315331 -0.92657 0 255 255 255 255 
-0.11 0.22 -0.434675 -0.262235 0.505347 -0.822105 0 255 255 255 255 
-0.11 0.207576 0.44 -0.266588 0.319382 0.909355 0 255 255 255 255 
-0.11 0.22 0.434675 -0.239052 0.519547 0.82032 0 255 255 255 255 
-0.0727272 0.22 -0.44 -0.114277 0.550932 -0.826689 0 255 255 255 255 
0 0.22 -0.448081 -0.00831633 0.324911 -0.945708 0 255 255 255 255 
-0.0727272 0.22 0.44 -0.105837 0.344066 0.932962 0 255 255 255 255 
0 0.22 0.448081 0.00831636 0.324913 0.945708 0 255 255 255 255 
0.0727273 0.22 -0.44 0.105835 0.344064 -0.932963 0 255 255 255 255 
0.11 0.207576 -0.44 0.266588 0.319382 -0.909355 0 255 255 255 255 
0.11 0.22 -0.434675 0.239052 0.519547 -0.82032 0 255 255 255 255 
0.11 0.22 0.434675 0.262236 0.505347 0.822105 0 255 255 255 255 
0.0727273 0.22 0.44 0.114277 0.550932 0.826689 0 255 255 255 255 
0.11 0.207576 0.44 0.205025 0.315332 0.926569 0 255 255 255 255 
0.22 0.22 -0.387533 0.435075 0.441532 -0.784703 0 255 255 255 255 
0.22 0.22 0.387532 0.441531 0.435075 0.784703 0 255 255 255 255 
0.300545 0.22 -0.33 0.564571 0.491953 -0.662753 0 255 255 255 255 
0.33 0.170909 -0.33 0.725125 0.333415 -0.602518 0 255 255 255 255 
0.33 0.22 -0.300545 0.694109 0.465753 -0.548895 0 255 255 255 255 
0.33 0.22 0.300545 0.662753 0.491953 0.564571 0 255 255 255 255 
0.300545 0.22 0.33 0.556263 0.49081 0.67058 0 255 255 255 255 
0.33 0.170909 0.33 0.602518 0.333415 0.725125 0 255 255 255 255 
0.387532 0.22 -0.22 0.784703 0.435076 -0.441531 0 255 255 255 255 
0.434675 0.22 -0.11 0.822105 0.505347 -0.262235 0 255 255 255 255 
0.44 0.207576 -0.11 0.926569 0.315333 -0.205025 0 255 255 255 255 
0.44 0.22 -0.0727272 0.826689 0.550932 -0.114277 0 255 255 255 255 
0.44 0.22 0.0727273 0.932962 0.344066 0.105837 0 255 255 255 255 
0.434675 0.22 0.11 0.82032 0.519547 0.239052 0 255 255 255 255 
0.44 0.207576 0.11 0.909354 0.319383 0.266588 0 255 255 255 255 
0.387532 0.22 0.22 0.784703 0.441532 0.435075 0 255 255 255 255 
0.448081 0.22 0 0.945707 0.324913 -0.00831636 0 255 255 255 255 
-0.44 0.234545 0 -0.81993 0.571965 -0.023893 0 255 255 255 255 
-0.33 0.300545 -0.22 -0.637294 0.565168 -0.523872 0 255 255 255 255 
-0.33 0.33 -0.170909 -0.725125 0.602518 -0.333414 0 255 255 255 255 
-0.356104 0.33 -0.11 -0.76917 0.599239 -0.222014 0 255 255 255 255 
-0.371818 0.33 0 -0.790802 0.612035 0.00667039 0 255 255 255 255 
-0.356104 0.33 0.11 -0.776191 0.579588 0.248203 0 255 255 255 255 
-0.33 0.300545 0.22 -0.662753 0.564571 0.491953 0 255 255 255 255 
-0.33 0.33 0.170909 -0.602518 0.725125 0.333415 0 255 255 255 255 
-0.22 0.300545 -0.33 -0.491953 0.564571 -0.662753 0 255 255 255 255 
-0.22 0.33 -0.300545 -0.49081 0.67058 -0.556263 0 255 255 255 255 
-0.300545 0.33 -0.22 -0.550264 0.718046 -0.426169 0 255 255 255 255 
-0.300545 0.33 0.22 -0.556263 0.67058 0.49081 0 255 255 255 255 
-0.22 0.300545 0.33 -0.523872 0.565168 0.637294 0 255 255 255 255 
-0.22 0.33 0.300545 -0.426169 0.718046 0.550264 0 255 255 255 255 
-0.170909 0.33 -0.33 -0.333414 0.725125 -0.602518 0 255 255 255 255 
-0.11 0.33 -0.356104 -0.248203 0.579588 -0.776191 0 255 255 255 255 
-0.170909 0.33 0.33 -0.333414 0.602518 0.725125 0 255 255 255 255 
-0.11 0.33 0.356104 -0.222014 0.599239 0.76917 0 255 255 255 255 
0 0.234545 -0.44 0.023893 0.571965 -0.81993 0 255 255 255 255 
0 0.33 -0.371818 -0.0066704 0.612035 -0.790802 0 255 255 255 255 
0 0.234545 0.44 -0.023893 0.571965 0.81993 0 255 255 255 255 
0 0.33 0.371818 0.00667041 0.612035 0.790802 0 255 255 255 255 
0.11 0.33 -0.356104 0.222014 0.599239 -0.76917 0 255 255 255 255 
0.11 0.33 0.356104 0.248204 0.579588 0.776191 0 255 255 255 255 
0.170909 0.33 -0.33 0.333414 0.602518 -0.725125 0 255 255 255 255 
0.22 0.300545 -0.33 0.515168 0.562918 -0.646316 0 255 255 255 255 
0.22 0.33 -0.300545 0.426169 0.718046 -0.550264 0 255 255 255 255 
0.22 0.33 0.300545 0.523872 0.637294 0.565168 0 255 255 255 255 
0.170909 0.33 0.33 0.333415 0.725125 0.602518 0 255 255 255 255 
0.22 0.300545 0.33 0.426169 0.550264 0.718046 0 255 255 255 255 
0.300545 0.33 -0.22 0.565168 0.637294 -0.523872 0 255 255 255 255 
0.33 0.300545 -0.22 0.697408 0.556266 -0.451874 0 255 255 255 255 
0.33 0.33 -0.170909 0.602518 0.725125 -0.333414 0 255 255 255 255 
0.33 0.33 0.170909 0.725125 0.602518 0.333415 0 255 255 255 255 
0.300545 0.33 0.22 0.562359 0.672871 0.480622 0 255 255 255 255 
0.33 0.300545 0.22 0.694109 0.548895 0.465753 0 255 255 255 255 
0.356104 0.33 -0.11 0.776191 0.579588 -0.248203 0 255 255 255 255 
0.371818 0.33 0 0.790802 0.612035 -0.00667041 0 255 255 255 255 
0.44 0.234545 0 0.81993 0.571965 0.023893 0 255 255 255 255 
0.356104 0.33 0.11 0.76917 0.599239 0.222014 0 255 255 255 255 
-0.33 0.356104 -0.11 -0.579588 0.776191 -0.248203 0 255 255 255 255 
-0.33 0.371818 0 -0.612035 0.790802 -0.0066704 0 255 255 255 255 
-0.33 0.356104 0.11 -0.599239 0.76917 0.222014 0 255 255 255 255 
-0.22 0.387532 -0.22 -0.435075 0.784703 -0.441531 0 255 255 255 255 
-0.22 0.434675 -0.11 -0.505346 0.822106 -0.262235 0 255 255 255 255 
-0.22 0.44 -0.0727272 -0.550932 0.826689 -0.114276 0 255 255 255 255 
-0.234545 0.44 0 -0.571965 0.81993 0.023893 0 255 255 255 255 
-0.22 0.434675 0.11 -0.519547 0.82032 0.239052 0 255 255 255 255 
-0.22 0.44 0.0727273 -0.344066 0.932962 0.105837 0 255 255 255 255 
-0.22 0.387532 0.22 -0.441531 0.784703 0.435076 0 255 255 255 255 
-0.11 0.356104 -0.33 -0.222014 0.76917 -0.599239 0 255 255 255 255 
-0.11 0.434675 -0.22 -0.239052 0.82032 -0.519547 0 255 255 255 255 
-0.11 0.44 -0.207576 -0.266588 0.909355 -0.319382 0 255 255 255 255 
-0.207576 0.44 -0.11 -0.315332 0.926569 -0.205025 0 255 255 255 255 
-0.207576 0.44 0.11 -0.319382 0.909355 0.266588 0 255 255 255 255 
-0.11 0.434675 0.22 -0.262235 0.822105 0.505347 0 255 255 255 255 
-0.11 0.44 0.207576 -0.205025 0.926569 0.315333 0 255 255 255 255 
-0.11 0.356104 0.33 -0.248204 0.776191 0.579588 0 255 255 255 255 
0 0.371818 -0.33 0.0066704 0.790802 -0.612035 0 255 255 255 255 
0 0.44 -0.234545 -0.023893 0.81993 -0.571965 0 255 255 255 255 
-0.0727272 0.44 -0.22 -0.105837 0.932962 -0.344066 0 255 255 255 255 
-0.0727272 0.44 0.22 -0.114277 0.826689 0.550932 0 255 255 255 255 
0 0.371818 0.33 -0.0066704 0.790802 0.612035 0 255 255 255 255 
0 0.44 0.234545 0.023893 0.81993 0.571965 0 255 255 255 255 
0.11 0.356104 -0.33 0.248204 0.776191 -0.579588 0 255 255 255 255 
0.0727273 0.44 -0.22 0.114276 0.826689 -0.550932 0 255 255 255 255 
0.11 0.434675 -0.22 0.262236 0.822105 -0.505346 0 255 255 255 255 
0.11 0.44 -0.207576 0.205025 0.926569 -0.315332 0 255 255 255 255 
0.11 0.44 0.207576 0.266588 0.909354 0.319383 0 255 255 255 255 
0.0727273 0.44 0.22 0.105837 0.932962 0.344066 0 255 255 255 255 
0.11 0.434675 0.22 0.239052 0.82032 0.519547 0 255 255 255 255 
0.11 0.356104 0.33 0.222014 0.76917 0.599239 0 255 255 255 255 
0.22 0.387532 -0.22 0.441532 0.784703 -0.435075 0 255 255 255 255 
0.207576 0.44 -0.11 0.319382 0.909355 -0.266588 0 255 255 255 255 
0.22 0.434675 -0.11 0.519547 0.82032 -0.239052 0 255 255 255 255 
0.22 0.44 -0.0727272 0.344066 0.932962 -0.105837 0 255 255 255 255 
0.22 0.44 0.0727273 0.550932 0.826689 0.114277 0 255 255 255 255 
0.207576 0.44 0.11 0.315332 0.926569 0.205025 0 255 255 255 255 
0.22 0.434675 0.11 0.505347 0.822105 0.262236 0 255 255 255 255 
0.22 0.387532 0.22 0.435075 0.784703 0.441531 0 255 255 255 255 
0.33 0.356104 -0.11 0.599239 0.76917 -0.222014 0 255 255 255 255 
0.234545 0.44 0 0.571965 0.81993 -0.023893 0 255 255 255 255 
0.33 0.371818 0 0.612035 0.790802 0.00667041 0 255 255 255 255 
0.33 0.356104 0.11 0.579588 0.776191 0.248204 0 255 255 255 255 
-0.22 0.448081 0 -0.324912 0.945708 -0.00831644 0 255 255 255 255 
-0.11 0.472525 -0.11 -0.192947 0.961566 -0.195351 0 255 255 255 255 
-0.11 0.484748 0 -0.196069 0.980348 0.0217854 0 255 255 255 255 
-0.11 0.472525 0.11 -0.209749 0.955606 0.206935 0 255 255 255 255 
0 0.448081 -0.22 0.00831644 0.945708 -0.324912 0 255 255 255 255 
0 0.484748 -0.11 0.0217854 0.980348 -0.196069 0 255 255 255 255 
0 0.49697 0 3.20703e-009 1 0 0 255 255 255 255 
0 0.484748 0.11 -0.0217854 0.980348 0.196069 0 255 255 255 255 
0 0.448081 0.22 -0.00831636 0.945707 0.324913 0 255 255 255 255 
0.11 0.472525 -0.11 0.209749 0.955606 -0.206935 0 255 255 255 255 
0.11 0.484748 0 0.196069 0.980348 -0.0217854 0 255 255 255 255 
0.11 0.472525 0.11 0.192947 0.961566 0.195351 0 255 255 255 255 
0.22 0.448081 0 0.324913 0.945708 0.00831636 0 255 255 255 255 
3 0 1 2 0 
3 1 3 2 0 
3 4 5 6 0 
3 0 6 5 0 
3 0 5 1 0 
3 1 5 7 0 
3 8 3 1 0 
3 8 1 9 0 
3 9 1 7 0 
3 9 10 8 0 
3 11 12 13 0 
3 4 13 12 0 
3 4 12 5 0 
3 5 12 14 0 
3 14 15 5 0 
3 5 15 7 0 
3 15 16 7 0 
3 7 16 9 0 
3 17 10 9 0 
3 17 9 18 0 
3 18 9 16 0 
3 18 19 17 0 
3 12 11 20 0 
3 20 21 22 0 
3 20 22 12 0 
3 12 22 14 0 
3 22 23 14 0 
3 14 23 15 0 
3 23 24 15 0 
3 15 24 16 0 
3 25 26 18 0 
3 25 18 24 0 
3 24 18 16 0 
3 18 26 19 0 
3 22 21 27 0 
3 27 28 29 0 
3 27 29 22 0 
3 22 29 23 0 
3 30 31 24 0 
3 30 24 29 0 
3 29 24 23 0 
3 24 31 25 0 
3 29 28 32 0 
3 29 32 30 0 
3 33 34 35 0 
3 34 36 37 0 
3 35 34 37 0 
3 36 38 39 0 
3 37 36 39 0 
3 38 40 39 0 
3 41 42 43 0 
3 33 43 42 0 
3 33 42 34 0 
3 34 42 44 0 
3 2 44 0 0 
3 2 36 44 0 
3 36 34 44 0 
3 3 36 2 0 
3 3 45 36 0 
3 45 38 36 0 
3 46 40 38 0 
3 46 38 47 0 
3 47 38 45 0 
3 47 48 46 0 
3 49 50 51 0 
3 41 51 50 0 
3 41 50 42 0 
3 42 50 52 0 
3 6 52 4 0 
3 6 44 52 0 
3 44 42 52 0 
3 6 0 44 0 
3 8 45 3 0 
3 10 45 8 0 
3 10 53 45 0 
3 53 47 45 0 
3 54 48 47 0 
3 54 47 55 0 
3 55 47 53 0 
3 55 56 54 0 
3 49 57 58 0 
3 50 49 58 0 
3 13 58 11 0 
3 13 52 58 0 
3 52 50 58 0 
3 13 4 52 0 
3 17 53 10 0 
3 19 53 17 0 
3 19 59 53 0 
3 59 55 53 0 
3 55 59 60 0 
3 56 55 60 0 
3 57 61 62 0 
3 58 57 62 0 
3 11 63 20 0 
3 11 58 63 0 
3 58 62 63 0 
3 20 63 21 0 
3 25 64 26 0 
3 26 59 19 0 
3 26 64 59 0 
3 64 65 59 0 
3 59 65 66 0 
3 60 59 66 0 
3 62 61 67 0 
3 67 68 69 0 
3 67 69 62 0 
3 62 69 63 0 
3 21 70 27 0 
3 21 63 70 0 
3 63 69 70 0 
3 27 70 28 0 
3 30 71 31 0 
3 31 64 25 0 
3 31 71 64 0 
3 71 72 64 0 
3 73 74 65 0 
3 73 65 72 0 
3 72 65 64 0 
3 65 74 66 0 
3 69 68 75 0 
3 75 76 77 0 
3 75 77 69 0 
3 69 77 70 0 
3 28 78 32 0 
3 28 70 78 0 
3 70 77 78 0 
3 32 71 30 0 
3 32 78 71 0 
3 78 79 71 0 
3 80 81 72 0 
3 80 72 79 0 
3 79 72 71 0 
3 72 81 73 0 
3 77 76 82 0 
3 78 77 82 0 
3 83 78 82 0 
3 79 78 83 0 
3 84 79 83 0 
3 79 84 80 0 
3 85 86 87 0 
3 86 88 87 0 
3 89 90 91 0 
3 90 33 35 0 
3 90 35 91 0 
3 91 35 92 0 
3 85 37 86 0 
3 85 92 37 0 
3 92 35 37 0 
3 86 93 88 0 
3 86 37 93 0 
3 37 39 93 0 
3 40 94 95 0 
3 40 95 39 0 
3 39 95 93 0 
3 94 96 95 0 
3 97 98 99 0 
3 43 90 89 0 
3 41 43 89 0 
3 41 89 99 0 
3 41 99 98 0 
3 43 33 90 0 
3 46 94 40 0 
3 94 100 96 0 
3 46 100 94 0 
3 46 101 100 0 
3 46 48 101 0 
3 101 102 100 0 
3 51 98 97 0 
3 51 97 49 0 
3 49 97 103 0 
3 51 41 98 0 
3 54 101 48 0 
3 101 54 56 0 
3 101 56 102 0 
3 102 56 104 0 
3 105 106 107 0 
3 106 103 107 0 
3 106 57 103 0 
3 57 49 103 0 
3 108 60 109 0 
3 108 104 60 0 
3 104 56 60 0 
3 109 110 108 0 
3 106 105 111 0 
3 111 57 106 0 
3 111 112 57 0 
3 112 61 57 0 
3 109 113 114 0 
3 109 60 113 0 
3 60 66 113 0 
3 109 114 110 0 
3 115 67 61 0 
3 115 61 116 0 
3 116 61 112 0 
3 67 115 68 0 
3 73 117 74 0 
3 74 117 118 0 
3 74 118 66 0 
3 66 118 113 0 
3 115 116 119 0 
3 119 120 121 0 
3 115 119 121 0 
3 115 121 75 0 
3 115 75 68 0 
3 75 121 76 0 
3 80 122 81 0 
3 123 124 117 0 
3 122 123 117 0 
3 122 117 73 0 
3 122 73 81 0 
3 117 124 118 0 
3 121 120 125 0 
3 76 121 125 0 
3 76 125 82 0 
3 82 125 126 0 
3 127 126 128 0 
3 127 83 126 0 
3 83 82 126 0 
3 129 83 127 0 
3 129 130 83 0 
3 130 84 83 0 
3 122 80 84 0 
3 122 84 131 0 
3 131 84 130 0 
3 122 131 123 0 
3 127 128 132 0 
3 127 132 129 0 
3 133 134 135 0 
3 134 85 87 0 
3 134 87 135 0 
3 135 87 136 0 
3 88 137 138 0 
3 88 138 87 0 
3 87 138 136 0 
3 137 139 138 0 
3 140 141 142 0 
3 141 89 91 0 
3 141 91 142 0 
3 142 91 143 0 
3 133 92 134 0 
3 133 143 92 0 
3 143 91 92 0 
3 92 85 134 0 
3 93 137 88 0 
3 137 144 139 0 
3 137 93 144 0 
3 93 95 144 0 
3 96 145 146 0 
3 96 146 95 0 
3 95 146 144 0 
3 145 147 146 0 
3 99 141 140 0 
3 99 140 97 0 
3 97 140 148 0 
3 99 89 141 0 
3 100 145 96 0 
3 145 100 102 0 
3 145 102 147 0 
3 147 102 149 0 
3 150 151 152 0 
3 151 148 152 0 
3 151 103 148 0 
3 103 97 148 0 
3 153 104 154 0 
3 153 149 104 0 
3 149 102 104 0 
3 154 155 153 0 
3 107 151 150 0 
3 107 150 105 0 
3 105 150 156 0 
3 107 103 151 0 
3 108 154 104 0 
3 154 108 110 0 
3 154 110 155 0 
3 155 110 157 0 
3 158 111 105 0 
3 158 105 159 0 
3 159 105 156 0 
3 111 158 112 0 
3 113 160 114 0 
3 114 160 161 0 
3 114 161 110 0 
3 110 161 157 0 
3 158 159 162 0 
3 162 112 158 0 
3 162 163 112 0 
3 163 116 112 0 
3 160 164 165 0 
3 160 113 164 0 
3 113 118 164 0 
3 160 165 161 0 
3 166 119 116 0 
3 166 116 167 0 
3 167 116 163 0 
3 119 166 120 0 
3 123 168 124 0 
3 124 168 169 0 
3 124 169 118 0 
3 118 169 164 0 
3 166 167 170 0 
3 120 166 170 0 
3 120 170 125 0 
3 125 170 171 0 
3 172 171 173 0 
3 172 126 171 0 
3 126 125 171 0 
3 126 172 128 0 
3 129 174 130 0 
3 175 130 174 0 
3 175 176 130 0 
3 176 131 130 0 
3 168 123 131 0 
3 168 131 177 0 
3 177 131 176 0 
3 168 177 169 0 
3 172 173 178 0 
3 128 172 178 0 
3 128 178 132 0 
3 132 178 179 0 
3 174 129 132 0 
3 174 132 180 0 
3 180 132 179 0 
3 174 180 175 0 
3 181 182 183 0 
3 182 133 135 0 
3 182 135 183 0 
3 183 135 184 0 
3 135 136 184 0 
3 136 185 184 0 
3 136 138 185 0 
3 138 186 185 0 
3 139 187 188 0 
3 139 188 138 0 
3 138 188 186 0 
3 187 189 188 0 
3 190 140 142 0 
3 191 190 142 0 
3 181 143 182 0 
3 181 191 143 0 
3 191 142 143 0 
3 143 133 182 0 
3 144 187 139 0 
3 187 192 189 0 
3 187 144 192 0 
3 144 146 192 0 
3 147 193 192 0 
3 146 147 192 0 
3 194 195 196 0 
3 195 190 196 0 
3 195 148 190 0 
3 148 140 190 0 
3 197 149 198 0 
3 197 193 149 0 
3 193 147 149 0 
3 198 199 197 0 
3 152 195 194 0 
3 152 194 150 0 
3 150 194 200 0 
3 152 148 195 0 
3 153 198 149 0 
3 198 153 155 0 
3 198 155 199 0 
3 199 155 201 0 
3 156 150 202 0 
3 202 150 200 0 
3 157 203 155 0 
3 203 201 155 0 
3 159 156 204 0 
3 204 156 202 0 
3 161 205 157 0 
3 205 203 157 0 
3 206 162 159 0 
3 206 159 207 0 
3 207 159 204 0 
3 162 206 163 0 
3 164 208 165 0 
3 165 208 209 0 
3 165 209 161 0 
3 161 209 205 0 
3 206 207 210 0 
3 210 163 206 0 
3 210 211 163 0 
3 211 167 163 0 
3 208 212 213 0 
3 208 164 212 0 
3 164 169 212 0 
3 208 213 209 0 
3 214 170 167 0 
3 211 214 167 0 
3 215 214 216 0 
3 215 171 214 0 
3 171 170 214 0 
3 171 215 173 0 
3 175 217 176 0 
3 218 176 217 0 
3 218 219 176 0 
3 219 177 176 0 
3 177 219 212 0 
3 169 177 212 0 
3 215 216 220 0 
3 173 215 220 0 
3 173 220 178 0 
3 178 220 221 0 
3 178 221 179 0 
3 179 221 222 0 
3 179 222 180 0 
3 180 222 223 0 
3 217 175 180 0 
3 217 180 224 0 
3 224 180 223 0 
3 217 224 218 0 
3 181 183 225 0 
3 226 225 183 0 
3 226 183 227 0 
3 227 183 184 0 
3 184 185 227 0 
3 185 228 227 0 
3 185 186 228 0 
3 186 229 228 0 
3 230 231 229 0 
3 230 229 188 0 
3 188 229 186 0 
3 188 189 230 0 
3 232 190 191 0 
3 233 232 191 0 
3 225 191 181 0 
3 225 234 191 0 
3 234 233 191 0 
3 225 226 234 0 
3 230 235 231 0 
3 189 235 230 0 
3 189 192 235 0 
3 192 236 235 0 
3 193 237 236 0 
3 192 193 236 0 
3 194 196 238 0 
3 196 239 238 0 
3 196 190 239 0 
3 190 232 239 0 
3 240 193 197 0 
3 240 241 193 0 
3 241 237 193 0 
3 197 199 240 0 
3 238 242 243 0 
3 238 243 194 0 
3 194 243 200 0 
3 238 239 242 0 
3 240 244 241 0 
3 244 240 199 0 
3 244 199 245 0 
3 245 199 201 0 
3 202 200 246 0 
3 246 200 243 0 
3 203 247 201 0 
3 247 245 201 0 
3 204 202 248 0 
3 248 202 246 0 
3 205 249 203 0 
3 249 247 203 0 
3 250 251 207 0 
3 250 207 248 0 
3 248 207 204 0 
3 251 250 252 0 
3 253 254 255 0 
3 255 254 249 0 
3 255 249 209 0 
3 209 249 205 0 
3 210 207 251 0 
3 251 211 210 0 
3 251 252 211 0 
3 252 256 211 0 
3 213 253 255 0 
3 213 212 253 0 
3 212 257 253 0 
3 213 255 209 0 
3 258 214 211 0 
3 256 258 211 0 
3 216 259 260 0 
3 216 214 259 0 
3 214 258 259 0 
3 260 259 261 0 
3 262 263 264 0 
3 264 219 218 0 
3 264 263 219 0 
3 263 265 219 0 
3 219 265 257 0 
3 212 219 257 0 
3 220 216 260 0 
3 260 261 266 0 
3 260 266 220 0 
3 220 266 221 0 
3 221 266 222 0 
3 222 266 267 0 
3 222 267 223 0 
3 223 267 268 0 
3 262 264 224 0 
3 262 224 268 0 
3 268 224 223 0 
3 224 264 218 0 
3 226 227 269 0 
3 270 269 227 0 
3 270 227 271 0 
3 271 227 228 0 
3 272 273 271 0 
3 272 271 229 0 
3 229 271 228 0 
3 229 231 272 0 
3 232 233 274 0 
3 275 274 233 0 
3 275 233 276 0 
3 276 233 234 0 
3 269 234 226 0 
3 269 277 234 0 
3 277 276 234 0 
3 269 270 277 0 
3 272 278 273 0 
3 231 278 272 0 
3 231 235 278 0 
3 235 279 278 0 
3 280 281 279 0 
3 280 279 236 0 
3 236 279 235 0 
3 236 237 280 0 
3 274 282 283 0 
3 274 283 232 0 
3 232 283 239 0 
3 274 275 282 0 
3 280 284 281 0 
3 284 280 237 0 
3 284 237 285 0 
3 285 237 241 0 
3 243 242 286 0 
3 242 287 286 0 
3 242 239 287 0 
3 239 283 287 0 
3 288 241 244 0 
3 288 289 241 0 
3 289 285 241 0 
3 244 245 288 0 
3 286 290 291 0 
3 286 291 243 0 
3 243 291 246 0 
3 286 287 290 0 
3 288 292 289 0 
3 292 288 245 0 
3 292 245 293 0 
3 293 245 247 0 
3 294 295 248 0 
3 294 248 291 0 
3 291 248 246 0 
3 295 294 296 0 
3 297 298 299 0 
3 299 298 293 0 
3 299 293 249 0 
3 249 293 247 0 
3 250 248 295 0 
3 295 252 250 0 
3 295 296 252 0 
3 296 300 252 0 
3 254 297 299 0 
3 254 253 297 0 
3 253 301 297 0 
3 254 299 249 0 
3 302 303 256 0 
3 302 256 300 0 
3 300 256 252 0 
3 303 302 304 0 
3 305 306 307 0 
3 307 306 301 0 
3 307 301 257 0 
3 257 301 253 0 
3 258 256 303 0 
3 303 304 308 0 
3 303 308 258 0 
3 258 308 259 0 
3 261 309 310 0 
3 261 259 309 0 
3 259 308 309 0 
3 310 309 311 0 
3 312 313 314 0 
3 314 263 262 0 
3 314 313 263 0 
3 313 315 263 0 
3 305 307 265 0 
3 305 265 315 0 
3 315 265 263 0 
3 265 307 257 0 
3 266 261 310 0 
3 310 311 316 0 
3 310 316 266 0 
3 266 316 267 0 
3 312 314 268 0 
3 312 268 316 0 
3 316 268 267 0 
3 268 314 262 0 
3 270 271 317 0 
3 271 273 317 0 
3 275 276 318 0 
3 319 318 276 0 
3 319 276 320 0 
3 320 276 277 0 
3 317 277 270 0 
3 317 321 277 0 
3 321 320 277 0 
3 273 321 317 0 
3 273 278 321 0 
3 278 322 321 0 
3 323 324 322 0 
3 323 322 279 0 
3 279 322 278 0 
3 279 281 323 0 
3 283 282 325 0 
3 326 318 327 0 
3 325 318 326 0 
3 325 275 318 0 
3 325 282 275 0 
3 318 319 327 0 
3 323 328 324 0 
3 328 329 330 0 
3 323 329 328 0 
3 323 284 329 0 
3 323 281 284 0 
3 284 285 329 0 
3 325 331 332 0 
3 325 332 283 0 
3 283 332 287 0 
3 325 326 331 0 
3 329 333 330 0 
3 333 329 285 0 
3 333 285 334 0 
3 334 285 289 0 
3 291 290 335 0 
3 290 336 335 0 
3 290 287 336 0 
3 287 332 336 0 
3 337 289 292 0 
3 337 338 289 0 
3 338 334 289 0 
3 292 293 337 0 
3 294 291 335 0 
3 335 296 294 0 
3 335 336 296 0 
3 336 339 296 0 
3 298 338 337 0 
3 298 297 338 0 
3 297 340 338 0 
3 298 337 293 0 
3 341 342 300 0 
3 341 300 339 0 
3 339 300 296 0 
3 342 341 343 0 
3 344 345 346 0 
3 346 345 340 0 
3 346 340 301 0 
3 301 340 297 0 
3 302 300 342 0 
3 342 343 347 0 
3 302 342 347 0 
3 302 347 348 0 
3 302 348 304 0 
3 348 347 349 0 
3 350 351 352 0 
3 306 344 346 0 
3 305 344 306 0 
3 305 351 344 0 
3 305 352 351 0 
3 306 346 301 0 
3 308 304 348 0 
3 348 349 353 0 
3 348 353 308 0 
3 308 353 309 0 
3 311 354 355 0 
3 311 309 354 0 
3 309 353 354 0 
3 355 313 312 0 
3 355 354 313 0 
3 354 356 313 0 
3 350 352 315 0 
3 350 315 356 0 
3 356 315 313 0 
3 315 352 305 0 
3 316 311 355 0 
3 316 355 312 0 
3 319 320 357 0 
3 320 321 358 0 
3 357 320 358 0 
3 321 322 359 0 
3 358 321 359 0 
3 322 324 359 0 
3 326 327 360 0 
3 327 319 357 0 
3 327 357 360 0 
3 360 357 361 0 
3 362 358 363 0 
3 362 361 358 0 
3 361 357 358 0 
3 363 364 365 0 
3 363 358 364 0 
3 358 359 364 0 
3 324 328 366 0 
3 324 366 359 0 
3 359 366 364 0 
3 328 330 366 0 
3 332 331 367 0 
3 331 326 360 0 
3 331 360 367 0 
3 367 360 368 0 
3 369 361 370 0 
3 369 368 361 0 
3 368 360 361 0 
3 361 362 370 0 
3 364 371 365 0 
3 371 372 373 0 
3 371 364 372 0 
3 364 366 372 0 
3 330 333 374 0 
3 330 374 366 0 
3 366 374 372 0 
3 333 334 374 0 
3 336 332 367 0 
3 375 336 367 0 
3 376 368 377 0 
3 376 375 368 0 
3 375 367 368 0 
3 368 369 377 0 
3 372 378 373 0 
3 378 379 380 0 
3 378 372 379 0 
3 372 374 379 0 
3 379 374 334 0 
3 338 379 334 0 
3 339 336 375 0 
3 381 339 375 0 
3 382 375 376 0 
3 382 383 375 0 
3 383 381 375 0 
3 383 382 384 0 
3 385 386 387 0 
3 380 387 386 0 
3 380 379 387 0 
3 379 388 387 0 
3 388 379 338 0 
3 340 388 338 0 
3 341 339 381 0 
3 343 341 381 0 
3 343 381 389 0 
3 389 381 383 0 
3 390 383 384 0 
3 390 391 383 0 
3 391 389 383 0 
3 391 390 392 0 
3 393 394 395 0 
3 385 395 394 0 
3 385 387 395 0 
3 387 396 395 0 
3 345 344 396 0 
3 345 396 388 0 
3 388 396 387 0 
3 345 388 340 0 
3 347 343 389 0 
3 349 347 389 0 
3 349 389 397 0 
3 397 389 391 0 
3 398 391 392 0 
3 398 399 391 0 
3 399 397 391 0 
3 393 399 398 0 
3 393 395 399 0 
3 395 400 399 0 
3 351 350 400 0 
3 351 400 396 0 
3 396 400 395 0 
3 351 396 344 0 
3 353 349 397 0 
3 354 353 397 0 
3 399 354 397 0 
3 356 354 399 0 
3 400 356 399 0 
3 356 400 350 0 
3 362 363 401 0 
3 363 365 401 0 
3 369 370 402 0 
3 370 362 401 0 
3 370 401 402 0 
3 402 401 403 0 
3 365 371 404 0 
3 365 404 401 0 
3 401 404 403 0 
3 371 373 404 0 
3 376 377 405 0 
3 377 369 402 0 
3 377 402 405 0 
3 405 402 406 0 
3 406 402 407 0 
3 402 403 407 0 
3 407 403 408 0 
3 403 404 408 0 
3 373 378 409 0 
3 373 409 404 0 
3 404 409 408 0 
3 378 380 409 0 
3 382 376 405 0 
3 384 382 405 0 
3 384 405 410 0 
3 410 405 406 0 
3 410 406 411 0 
3 406 407 411 0 
3 411 407 412 0 
3 407 408 412 0 
3 386 385 412 0 
3 386 412 409 0 
3 409 412 408 0 
3 386 409 380 0 
3 390 384 410 0 
3 392 390 410 0 
3 392 410 413 0 
3 413 410 411 0 
3 394 393 413 0 
3 394 413 412 0 
3 412 413 411 0 
3 394 412 385 0 
3 398 392 413 0 
3 398 413 393 0 
