ply
format ascii 1.0
comment VCGLIB generated
element camera 1
property float view_px
property float view_py
property float view_pz
property float x_axisx
property float x_axisy
property float x_axisz
property float y_axisx
property float y_axisy
property float y_axisz
property float z_axisx
property float z_axisy
property float z_axisz
property float focal
property float scalex
property float scaley
property float centerx
property float centery
property int viewportx
property int viewporty
property float k1
property float k2
property float k3
property float k4
element vertex 54
property float x
property float y
property float z
property float nx
property float ny
property float nz
property int flags
property uchar red
property uchar green
property uchar blue
property uchar alpha
element face 104
property list uchar int vertex_indices
property int flags
end_header
-0 -0 -0 1 0 0 0 1 0 0 0 1 0 0 0 0 0 0 0 0 0 0 0
-2.82911 0 -0.182236 -0.287133 -0.649128 -0.704406 0 255 255 255 255 
-2.82911 -0.0893416 0 -0.1915 -0.958269 0.212244 0 255 255 255 255 
-3.19541 0 0 -1 0 0 0 255 255 255 255 
-2.82911 0 0.182236 -0.287133 0.649128 0.704406 0 255 255 255 255 
-2.12183 0 -0.455914 -0.289863 -0.324284 -0.900455 0 255 255 255 255 
-2.12183 -0.223513 0 -0.15532 -0.984184 0.0851883 0 255 255 255 255 
-2.12183 0 0.455914 -0.289863 0.324284 0.900455 0 255 255 255 255 
-1.41456 0 -0.651397 -0.229754 0.0616793 -0.971292 0 255 255 255 255 
-1.41456 -0.319349 0 -0.101816 -0.993733 -0.0461364 0 255 255 255 255 
-1.41456 0 0.651397 -0.229754 -0.0616794 0.971292 0 255 255 255 255 
-0.707278 0 -0.727747 -0.0259339 -0.231074 -0.972591 0 255 255 255 255 
-0.707278 -0.0301061 -0.707278 -0.048091 -0.893019 -0.447442 0 255 255 255 255 
-1.07759 0 -0.707278 -0.0786227 0.861347 -0.501897 0 255 255 255 255 
-0.707278 -0.376852 0 -0.0484902 -0.994057 0.097468 0 255 255 255 255 
-1.07759 0 0.707278 -0.0786226 -0.861347 0.501897 0 255 255 255 255 
-0.707278 -0.0301061 0.707278 -0.0521702 -0.884357 0.463887 0 255 255 255 255 
-0.707278 0 0.727747 -0.025934 0.231073 0.972591 0 255 255 255 255 
0 0 -0.74078 -1.07468e-007 -2.04701e-008 -1 0 255 255 255 255 
0 -0.049273 -0.707278 0.00744626 -0.883887 -0.467642 0 255 255 255 255 
0 -0.396019 0 1.86174e-009 -1 0 0 255 255 255 255 
0 -0.049273 0.707278 -0.00744626 -0.883887 0.467642 0 255 255 255 255 
0 0 0.74078 1.07308e-007 1.02351e-008 1 0 255 255 255 255 
0.707278 0 -0.727747 0.025934 0.231072 -0.972591 0 255 255 255 255 
0.707278 -0.0301061 -0.707278 0.0521702 -0.884357 -0.463887 0 255 255 255 255 
0.707278 -0.376852 0 0.0484902 -0.994057 -0.097468 0 255 255 255 255 
0.707278 -0.0301061 0.707278 0.048091 -0.893019 0.447442 0 255 255 255 255 
0.707278 0 0.727747 0.0259339 -0.231074 0.972591 0 255 255 255 255 
1.07759 0 -0.707278 0.0786227 -0.861347 -0.501897 0 255 255 255 255 
1.41456 0 -0.651397 0.229754 -0.0616793 -0.971292 0 255 255 255 255 
1.41456 -0.319349 0 0.101816 -0.993733 0.0461364 0 255 255 255 255 
1.41456 0 0.651397 0.229754 0.0616793 0.971292 0 255 255 255 255 
1.07759 0 0.707278 0.0786226 0.861347 0.501897 0 255 255 255 255 
2.12183 0 -0.455914 0.289863 0.324283 -0.900455 0 255 255 255 255 
2.12183 -0.223513 0 0.15532 -0.984184 -0.0851883 0 255 255 255 255 
2.12183 0 0.455914 0.289863 -0.324283 0.900455 0 255 255 255 255 
2.82911 0 -0.182236 0.287133 0.649128 -0.704405 0 255 255 255 255 
2.82911 -0.0893416 0 0.1915 -0.958269 -0.212245 0 255 255 255 255 
2.82911 0 0.182236 0.287133 -0.649128 0.704405 0 255 255 255 255 
3.19541 0 0 1 0 0 0 255 255 255 255 
-2.82911 0.0893416 0 -0.1915 0.958269 -0.212244 0 255 255 255 255 
-2.12183 0.223513 0 -0.15532 0.984184 -0.0851883 0 255 255 255 255 
-1.41456 0.319349 0 -0.101816 0.993733 0.0461364 0 255 255 255 255 
-0.707278 0.0301061 -0.707278 -0.0445575 0.888124 -0.457438 0 255 255 255 255 
-0.707278 0.376852 0 -0.0484905 0.994057 0.0974677 0 255 255 255 255 
-0.707278 0.0301061 0.707278 -0.0559343 0.891369 0.449815 0 255 255 255 255 
0 0.049274 -0.707278 0.00789011 0.883884 -0.46764 0 255 255 255 255 
0 0.396019 0 6.20582e-010 1 4.96465e-009 0 255 255 255 255 
0 0.049274 0.707278 -0.00789013 0.883884 0.46764 0 255 255 255 255 
0.707278 0.0301061 -0.707278 0.0559343 0.891369 -0.449815 0 255 255 255 255 
0.707278 0.376852 0 0.0484905 0.994057 -0.0974677 0 255 255 255 255 
0.707278 0.0301061 0.707278 0.0445576 0.888124 0.457438 0 255 255 255 255 
1.41456 0.319349 0 0.101816 0.993733 -0.0461364 0 255 255 255 255 
2.12183 0.223513 0 0.15532 0.984184 0.0851883 0 255 255 255 255 
2.82911 0.0893416 0 0.1915 0.958269 0.212245 0 255 255 255 255 
3 0 1 2 0 
3 1 3 2 0 
3 0 4 5 0 
3 1 0 5 0 
3 1 5 6 0 
3 3 1 6 0 
3 4 7 8 0 
3 5 4 8 0 
3 5 8 9 0 
3 6 5 9 0 
3 10 11 12 0 
3 7 12 11 0 
3 7 11 8 0 
3 8 11 13 0 
3 14 9 8 0 
3 14 8 15 0 
3 15 8 13 0 
3 15 16 14 0 
3 10 17 18 0 
3 11 10 18 0 
3 18 19 11 0 
3 11 19 13 0 
3 19 20 13 0 
3 13 20 15 0 
3 15 20 21 0 
3 16 15 21 0 
3 17 22 23 0 
3 18 17 23 0 
3 23 24 18 0 
3 18 24 19 0 
3 24 25 19 0 
3 19 25 20 0 
3 20 25 26 0 
3 21 20 26 0 
3 23 22 27 0 
3 27 28 29 0 
3 27 29 23 0 
3 23 29 24 0 
3 30 31 25 0 
3 30 25 29 0 
3 29 25 24 0 
3 25 31 26 0 
3 28 32 33 0 
3 29 28 33 0 
3 29 33 34 0 
3 30 29 34 0 
3 32 35 36 0 
3 33 32 36 0 
3 33 36 37 0 
3 34 33 37 0 
3 36 35 38 0 
3 36 38 37 0 
3 0 2 39 0 
3 2 3 39 0 
3 4 0 39 0 
3 40 4 39 0 
3 40 39 3 0 
3 6 40 3 0 
3 7 4 40 0 
3 41 7 40 0 
3 41 40 6 0 
3 9 41 6 0 
3 10 12 42 0 
3 12 7 41 0 
3 12 41 42 0 
3 42 41 43 0 
3 9 14 44 0 
3 9 44 41 0 
3 41 44 43 0 
3 14 16 44 0 
3 17 10 42 0 
3 45 17 42 0 
3 45 42 46 0 
3 42 43 46 0 
3 46 43 47 0 
3 43 44 47 0 
3 47 44 16 0 
3 21 47 16 0 
3 22 17 45 0 
3 48 22 45 0 
3 48 45 49 0 
3 45 46 49 0 
3 49 46 50 0 
3 46 47 50 0 
3 50 47 21 0 
3 26 50 21 0 
3 27 22 48 0 
3 28 27 48 0 
3 28 48 51 0 
3 51 48 49 0 
3 31 30 51 0 
3 31 51 50 0 
3 50 51 49 0 
3 31 50 26 0 
3 32 28 51 0 
3 52 32 51 0 
3 52 51 30 0 
3 34 52 30 0 
3 35 32 52 0 
3 53 35 52 0 
3 53 52 34 0 
3 37 53 34 0 
3 38 35 53 0 
3 38 53 37 0 
